<?xml version="1.0" encoding="UTF-8" standalone="no"?>
<!DOCTYPE svg PUBLIC "-//W3C//DTD SVG 1.1//EN"
 "http://www.w3.org/Graphics/SVG/1.1/DTD/svg11.dtd">
<!-- Generated by graphviz version 2.38.0 (20140413.2041)
 -->
<!-- Title: %3 Pages: 1 -->
<svg width="6924pt" height="836pt"
 viewBox="0.00 0.00 6923.71 836.00" xmlns="http://www.w3.org/2000/svg" xmlns:xlink="http://www.w3.org/1999/xlink">
<g id="graph0" class="graph" transform="scale(1 1) rotate(0) translate(4 832)">
<title>%3</title>
<polygon fill="white" stroke="none" points="-4,4 -4,-832 6919.71,-832 6919.71,4 -4,4"/>
<!-- [root] module.compute.azurerm_virtual_machine.example_rg (expand) -->
<g id="node1" class="node"><title>[root] module.compute.azurerm_virtual_machine.example_rg (expand)</title>
<polygon fill="none" stroke="black" points="4394.48,-612 3983.48,-612 3983.48,-576 4394.48,-576 4394.48,-612"/>
<text text-anchor="middle" x="4188.98" y="-590.3" font-family="Times,serif" font-size="14.00">module.compute.azurerm_virtual_machine.example_rg</text>
</g>
<!-- [root] module.compute.provider[&quot;registry.terraform.io/hashicorp/azurerm&quot;] -->
<g id="node2" class="node"><title>[root] module.compute.provider[&quot;registry.terraform.io/hashicorp/azurerm&quot;]</title>
<polygon fill="none" stroke="black" points="2905.98,-540 2436.1,-522 2905.98,-504 3375.86,-522 2905.98,-540"/>
<text text-anchor="middle" x="2905.98" y="-518.3" font-family="Times,serif" font-size="14.00">module.compute.provider[&quot;registry.terraform.io/hashicorp/azurerm&quot;]</text>
</g>
<!-- [root] module.compute.azurerm_virtual_machine.example_rg (expand)&#45;&gt;[root] module.compute.provider[&quot;registry.terraform.io/hashicorp/azurerm&quot;] -->
<g id="edge4" class="edge"><title>[root] module.compute.azurerm_virtual_machine.example_rg (expand)&#45;&gt;[root] module.compute.provider[&quot;registry.terraform.io/hashicorp/azurerm&quot;]</title>
<path fill="none" stroke="black" d="M3983.2,-581.773C3739.65,-568.485 3337.22,-546.528 3099.26,-533.545"/>
<polygon fill="black" stroke="black" points="3099.28,-530.042 3089.11,-532.992 3098.9,-537.031 3099.28,-530.042"/>
</g>
<!-- [root] module.compute.var.admin_password (expand) -->
<g id="node14" class="node"><title>[root] module.compute.var.admin_password (expand)</title>
<ellipse fill="none" stroke="black" cx="3651.98" cy="-522" rx="258.854" ry="18"/>
<text text-anchor="middle" x="3651.98" y="-518.3" font-family="Times,serif" font-size="14.00">[root] module.compute.var.admin_password (expand)</text>
</g>
<!-- [root] module.compute.azurerm_virtual_machine.example_rg (expand)&#45;&gt;[root] module.compute.var.admin_password (expand) -->
<g id="edge5" class="edge"><title>[root] module.compute.azurerm_virtual_machine.example_rg (expand)&#45;&gt;[root] module.compute.var.admin_password (expand)</title>
<path fill="none" stroke="black" d="M4058.3,-575.966C3973.13,-564.863 3862.57,-550.451 3778.28,-539.464"/>
<polygon fill="black" stroke="black" points="3778.51,-535.964 3768.14,-538.142 3777.6,-542.905 3778.51,-535.964"/>
</g>
<!-- [root] module.compute.var.admin_username (expand) -->
<g id="node15" class="node"><title>[root] module.compute.var.admin_username (expand)</title>
<ellipse fill="none" stroke="black" cx="4188.98" cy="-522" rx="259.954" ry="18"/>
<text text-anchor="middle" x="4188.98" y="-518.3" font-family="Times,serif" font-size="14.00">[root] module.compute.var.admin_username (expand)</text>
</g>
<!-- [root] module.compute.azurerm_virtual_machine.example_rg (expand)&#45;&gt;[root] module.compute.var.admin_username (expand) -->
<g id="edge6" class="edge"><title>[root] module.compute.azurerm_virtual_machine.example_rg (expand)&#45;&gt;[root] module.compute.var.admin_username (expand)</title>
<path fill="none" stroke="black" d="M4188.98,-575.697C4188.98,-567.983 4188.98,-558.712 4188.98,-550.112"/>
<polygon fill="black" stroke="black" points="4192.48,-550.104 4188.98,-540.104 4185.48,-550.104 4192.48,-550.104"/>
</g>
<!-- [root] module.compute.var.managed_disk_type (expand) -->
<g id="node16" class="node"><title>[root] module.compute.var.managed_disk_type (expand)</title>
<ellipse fill="none" stroke="black" cx="4738.98" cy="-522" rx="272.152" ry="18"/>
<text text-anchor="middle" x="4738.98" y="-518.3" font-family="Times,serif" font-size="14.00">[root] module.compute.var.managed_disk_type (expand)</text>
</g>
<!-- [root] module.compute.azurerm_virtual_machine.example_rg (expand)&#45;&gt;[root] module.compute.var.managed_disk_type (expand) -->
<g id="edge7" class="edge"><title>[root] module.compute.azurerm_virtual_machine.example_rg (expand)&#45;&gt;[root] module.compute.var.managed_disk_type (expand)</title>
<path fill="none" stroke="black" d="M4322.82,-575.966C4409.99,-564.871 4523.12,-550.472 4609.42,-539.489"/>
<polygon fill="black" stroke="black" points="4610.07,-542.935 4619.54,-538.201 4609.18,-535.991 4610.07,-542.935"/>
</g>
<!-- [root] module.compute.var.my_loc (expand) -->
<g id="node17" class="node"><title>[root] module.compute.var.my_loc (expand)</title>
<ellipse fill="none" stroke="black" cx="5242.98" cy="-522" rx="213.362" ry="18"/>
<text text-anchor="middle" x="5242.98" y="-518.3" font-family="Times,serif" font-size="14.00">[root] module.compute.var.my_loc (expand)</text>
</g>
<!-- [root] module.compute.azurerm_virtual_machine.example_rg (expand)&#45;&gt;[root] module.compute.var.my_loc (expand) -->
<g id="edge8" class="edge"><title>[root] module.compute.azurerm_virtual_machine.example_rg (expand)&#45;&gt;[root] module.compute.var.my_loc (expand)</title>
<path fill="none" stroke="black" d="M4394.78,-580.586C4562.98,-570.269 4806.91,-554.916 5019.98,-540 5040.03,-538.596 5061.1,-537.065 5081.94,-535.515"/>
<polygon fill="black" stroke="black" points="5082.44,-538.987 5092.15,-534.753 5081.92,-532.007 5082.44,-538.987"/>
</g>
<!-- [root] module.compute.var.my_nic_id (expand) -->
<g id="node18" class="node"><title>[root] module.compute.var.my_nic_id (expand)</title>
<ellipse fill="none" stroke="black" cx="2190.98" cy="-522" rx="227.46" ry="18"/>
<text text-anchor="middle" x="2190.98" y="-518.3" font-family="Times,serif" font-size="14.00">[root] module.compute.var.my_nic_id (expand)</text>
</g>
<!-- [root] module.compute.azurerm_virtual_machine.example_rg (expand)&#45;&gt;[root] module.compute.var.my_nic_id (expand) -->
<g id="edge9" class="edge"><title>[root] module.compute.azurerm_virtual_machine.example_rg (expand)&#45;&gt;[root] module.compute.var.my_nic_id (expand)</title>
<path fill="none" stroke="black" d="M3983.37,-589.604C3654.47,-583.544 2989.74,-568.72 2426.98,-540 2404.27,-538.841 2380.36,-537.389 2356.81,-535.824"/>
<polygon fill="black" stroke="black" points="2356.96,-532.327 2346.75,-535.147 2356.49,-539.311 2356.96,-532.327"/>
</g>
<!-- [root] module.compute.var.my_rg_name (expand) -->
<g id="node19" class="node"><title>[root] module.compute.var.my_rg_name (expand)</title>
<ellipse fill="none" stroke="black" cx="5713.98" cy="-522" rx="239.658" ry="18"/>
<text text-anchor="middle" x="5713.98" y="-518.3" font-family="Times,serif" font-size="14.00">[root] module.compute.var.my_rg_name (expand)</text>
</g>
<!-- [root] module.compute.azurerm_virtual_machine.example_rg (expand)&#45;&gt;[root] module.compute.var.my_rg_name (expand) -->
<g id="edge10" class="edge"><title>[root] module.compute.azurerm_virtual_machine.example_rg (expand)&#45;&gt;[root] module.compute.var.my_rg_name (expand)</title>
<path fill="none" stroke="black" d="M4394.59,-586.147C4646.84,-577.35 5087.52,-560.721 5464.98,-540 5488.46,-538.711 5513.17,-537.205 5537.55,-535.631"/>
<polygon fill="black" stroke="black" points="5537.85,-539.119 5547.6,-534.977 5537.39,-532.133 5537.85,-539.119"/>
</g>
<!-- [root] module.compute.var.my_vm_count (expand) -->
<g id="node20" class="node"><title>[root] module.compute.var.my_vm_count (expand)</title>
<ellipse fill="none" stroke="black" cx="6216.98" cy="-522" rx="245.057" ry="18"/>
<text text-anchor="middle" x="6216.98" y="-518.3" font-family="Times,serif" font-size="14.00">[root] module.compute.var.my_vm_count (expand)</text>
</g>
<!-- [root] module.compute.azurerm_virtual_machine.example_rg (expand)&#45;&gt;[root] module.compute.var.my_vm_count (expand) -->
<g id="edge11" class="edge"><title>[root] module.compute.azurerm_virtual_machine.example_rg (expand)&#45;&gt;[root] module.compute.var.my_vm_count (expand)</title>
<path fill="none" stroke="black" d="M4394.62,-589.323C4725.27,-582.855 5395.54,-567.456 5962.98,-540 5987.53,-538.812 6013.4,-537.338 6038.86,-535.758"/>
<polygon fill="black" stroke="black" points="6039.21,-539.243 6048.98,-535.124 6038.78,-532.257 6039.21,-539.243"/>
</g>
<!-- [root] module.compute.var.vm_size (expand) -->
<g id="node21" class="node"><title>[root] module.compute.var.vm_size (expand)</title>
<ellipse fill="none" stroke="black" cx="6697.98" cy="-522" rx="217.962" ry="18"/>
<text text-anchor="middle" x="6697.98" y="-518.3" font-family="Times,serif" font-size="14.00">[root] module.compute.var.vm_size (expand)</text>
</g>
<!-- [root] module.compute.azurerm_virtual_machine.example_rg (expand)&#45;&gt;[root] module.compute.var.vm_size (expand) -->
<g id="edge12" class="edge"><title>[root] module.compute.azurerm_virtual_machine.example_rg (expand)&#45;&gt;[root] module.compute.var.vm_size (expand)</title>
<path fill="none" stroke="black" d="M4394.83,-591.77C4795.01,-588.593 5705.82,-577.512 6470.98,-540 6493.16,-538.913 6516.53,-537.484 6539.52,-535.916"/>
<polygon fill="black" stroke="black" points="6539.95,-539.394 6549.69,-535.211 6539.47,-532.411 6539.95,-539.394"/>
</g>
<!-- [root] module.compute (expand) -->
<g id="node23" class="node"><title>[root] module.compute (expand)</title>
<ellipse fill="none" stroke="black" cx="4738.98" cy="-450" rx="160.572" ry="18"/>
<text text-anchor="middle" x="4738.98" y="-446.3" font-family="Times,serif" font-size="14.00">[root] module.compute (expand)</text>
</g>
<!-- [root] module.compute.provider[&quot;registry.terraform.io/hashicorp/azurerm&quot;]&#45;&gt;[root] module.compute (expand) -->
<g id="edge14" class="edge"><title>[root] module.compute.provider[&quot;registry.terraform.io/hashicorp/azurerm&quot;]&#45;&gt;[root] module.compute (expand)</title>
<path fill="none" stroke="black" d="M3128.45,-512.504C3503.51,-498.181 4252.69,-469.571 4579.9,-457.075"/>
<polygon fill="black" stroke="black" points="4580.08,-460.571 4589.94,-456.692 4579.81,-453.576 4580.08,-460.571"/>
</g>
<!-- [root] module.net.azurerm_network_interface.my_nic (expand) -->
<g id="node3" class="node"><title>[root] module.net.azurerm_network_interface.my_nic (expand)</title>
<polygon fill="none" stroke="black" points="2420.98,-396 2064.98,-396 2064.98,-360 2420.98,-360 2420.98,-396"/>
<text text-anchor="middle" x="2242.98" y="-374.3" font-family="Times,serif" font-size="14.00">module.net.azurerm_network_interface.my_nic</text>
</g>
<!-- [root] module.net.azurerm_public_ip.examplepublicip (expand) -->
<g id="node6" class="node"><title>[root] module.net.azurerm_public_ip.examplepublicip (expand)</title>
<polygon fill="none" stroke="black" points="1908.98,-324 1552.98,-324 1552.98,-288 1908.98,-288 1908.98,-324"/>
<text text-anchor="middle" x="1730.98" y="-302.3" font-family="Times,serif" font-size="14.00">module.net.azurerm_public_ip.examplepublicip</text>
</g>
<!-- [root] module.net.azurerm_network_interface.my_nic (expand)&#45;&gt;[root] module.net.azurerm_public_ip.examplepublicip (expand) -->
<g id="edge32" class="edge"><title>[root] module.net.azurerm_network_interface.my_nic (expand)&#45;&gt;[root] module.net.azurerm_public_ip.examplepublicip (expand)</title>
<path fill="none" stroke="black" d="M2118.38,-359.966C2041.88,-349.506 1943.9,-336.111 1865.62,-325.408"/>
<polygon fill="black" stroke="black" points="1866.07,-321.937 1855.69,-324.05 1865.12,-328.872 1866.07,-321.937"/>
</g>
<!-- [root] module.net.azurerm_subnet.internal (expand) -->
<g id="node8" class="node"><title>[root] module.net.azurerm_subnet.internal (expand)</title>
<polygon fill="none" stroke="black" points="2381.98,-324 2103.98,-324 2103.98,-288 2381.98,-288 2381.98,-324"/>
<text text-anchor="middle" x="2242.98" y="-302.3" font-family="Times,serif" font-size="14.00">module.net.azurerm_subnet.internal</text>
</g>
<!-- [root] module.net.azurerm_network_interface.my_nic (expand)&#45;&gt;[root] module.net.azurerm_subnet.internal (expand) -->
<g id="edge33" class="edge"><title>[root] module.net.azurerm_network_interface.my_nic (expand)&#45;&gt;[root] module.net.azurerm_subnet.internal (expand)</title>
<path fill="none" stroke="black" d="M2242.98,-359.697C2242.98,-351.983 2242.98,-342.712 2242.98,-334.112"/>
<polygon fill="black" stroke="black" points="2246.48,-334.104 2242.98,-324.104 2239.48,-334.104 2246.48,-334.104"/>
</g>
<!-- [root] module.net.azurerm_network_security_group.examplensg (expand) -->
<g id="node4" class="node"><title>[root] module.net.azurerm_network_security_group.examplensg (expand)</title>
<polygon fill="none" stroke="black" points="1319.98,-252 885.978,-252 885.978,-216 1319.98,-216 1319.98,-252"/>
<text text-anchor="middle" x="1102.98" y="-230.3" font-family="Times,serif" font-size="14.00">module.net.azurerm_network_security_group.examplensg</text>
</g>
<!-- [root] module.net.azurerm_resource_group.example_rg (expand) -->
<g id="node7" class="node"><title>[root] module.net.azurerm_resource_group.example_rg (expand)</title>
<polygon fill="none" stroke="black" points="1582.48,-180 1213.48,-180 1213.48,-144 1582.48,-144 1582.48,-180"/>
<text text-anchor="middle" x="1397.98" y="-158.3" font-family="Times,serif" font-size="14.00">module.net.azurerm_resource_group.example_rg</text>
</g>
<!-- [root] module.net.azurerm_network_security_group.examplensg (expand)&#45;&gt;[root] module.net.azurerm_resource_group.example_rg (expand) -->
<g id="edge34" class="edge"><title>[root] module.net.azurerm_network_security_group.examplensg (expand)&#45;&gt;[root] module.net.azurerm_resource_group.example_rg (expand)</title>
<path fill="none" stroke="black" d="M1174.77,-215.966C1217.5,-205.826 1271.86,-192.927 1316.24,-182.396"/>
<polygon fill="black" stroke="black" points="1317.2,-185.764 1326.12,-180.05 1315.59,-178.953 1317.2,-185.764"/>
</g>
<!-- [root] module.net.azurerm_network_security_rule.testrules (expand) -->
<g id="node5" class="node"><title>[root] module.net.azurerm_network_security_rule.testrules (expand)</title>
<polygon fill="none" stroke="black" points="1132.98,-396 734.978,-396 734.978,-360 1132.98,-360 1132.98,-396"/>
<text text-anchor="middle" x="933.978" y="-374.3" font-family="Times,serif" font-size="14.00">module.net.azurerm_network_security_rule.testrules</text>
</g>
<!-- [root] module.net.azurerm_network_security_rule.testrules (expand)&#45;&gt;[root] module.net.azurerm_network_security_group.examplensg (expand) -->
<g id="edge35" class="edge"><title>[root] module.net.azurerm_network_security_rule.testrules (expand)&#45;&gt;[root] module.net.azurerm_network_security_group.examplensg (expand)</title>
<path fill="none" stroke="black" d="M972.539,-359.929C990.966,-350.755 1012.71,-338.371 1029.98,-324 1052.22,-305.486 1072.66,-279.437 1086.22,-260.303"/>
<polygon fill="black" stroke="black" points="1089.12,-262.261 1091.94,-252.05 1083.37,-258.271 1089.12,-262.261"/>
</g>
<!-- [root] module.net.var.inbound_ports (expand) -->
<g id="node31" class="node"><title>[root] module.net.var.inbound_ports (expand)</title>
<ellipse fill="none" stroke="black" cx="798.978" cy="-306" rx="221.761" ry="18"/>
<text text-anchor="middle" x="798.978" y="-302.3" font-family="Times,serif" font-size="14.00">[root] module.net.var.inbound_ports (expand)</text>
</g>
<!-- [root] module.net.azurerm_network_security_rule.testrules (expand)&#45;&gt;[root] module.net.var.inbound_ports (expand) -->
<g id="edge36" class="edge"><title>[root] module.net.azurerm_network_security_rule.testrules (expand)&#45;&gt;[root] module.net.var.inbound_ports (expand)</title>
<path fill="none" stroke="black" d="M900.953,-359.876C882.759,-350.442 859.996,-338.639 840.595,-328.579"/>
<polygon fill="black" stroke="black" points="842.151,-325.443 831.662,-323.947 838.928,-331.658 842.151,-325.443"/>
</g>
<!-- [root] module.net.azurerm_public_ip.examplepublicip (expand)&#45;&gt;[root] module.net.azurerm_resource_group.example_rg (expand) -->
<g id="edge37" class="edge"><title>[root] module.net.azurerm_public_ip.examplepublicip (expand)&#45;&gt;[root] module.net.azurerm_resource_group.example_rg (expand)</title>
<path fill="none" stroke="black" d="M1552.72,-292.221C1493.72,-284.421 1437.79,-271.933 1416.98,-252 1400.54,-236.252 1396.58,-210.033 1396.27,-190.121"/>
<polygon fill="black" stroke="black" points="1399.77,-190.139 1396.4,-180.094 1392.77,-190.047 1399.77,-190.139"/>
</g>
<!-- [root] module.net.var.my_vm_count (expand) -->
<g id="node32" class="node"><title>[root] module.net.var.my_vm_count (expand)</title>
<ellipse fill="none" stroke="black" cx="1645.98" cy="-234" rx="219.861" ry="18"/>
<text text-anchor="middle" x="1645.98" y="-230.3" font-family="Times,serif" font-size="14.00">[root] module.net.var.my_vm_count (expand)</text>
</g>
<!-- [root] module.net.azurerm_public_ip.examplepublicip (expand)&#45;&gt;[root] module.net.var.my_vm_count (expand) -->
<g id="edge38" class="edge"><title>[root] module.net.azurerm_public_ip.examplepublicip (expand)&#45;&gt;[root] module.net.var.my_vm_count (expand)</title>
<path fill="none" stroke="black" d="M1709.97,-287.697C1699.26,-278.881 1686.09,-268.032 1674.48,-258.474"/>
<polygon fill="black" stroke="black" points="1676.69,-255.76 1666.75,-252.104 1672.24,-261.163 1676.69,-255.76"/>
</g>
<!-- [root] module.net.provider[&quot;registry.terraform.io/hashicorp/azurerm&quot;] -->
<g id="node10" class="node"><title>[root] module.net.provider[&quot;registry.terraform.io/hashicorp/azurerm&quot;]</title>
<polygon fill="none" stroke="black" points="1530.98,-108 1097.29,-90 1530.98,-72 1964.66,-90 1530.98,-108"/>
<text text-anchor="middle" x="1530.98" y="-86.3" font-family="Times,serif" font-size="14.00">module.net.provider[&quot;registry.terraform.io/hashicorp/azurerm&quot;]</text>
</g>
<!-- [root] module.net.azurerm_resource_group.example_rg (expand)&#45;&gt;[root] module.net.provider[&quot;registry.terraform.io/hashicorp/azurerm&quot;] -->
<g id="edge39" class="edge"><title>[root] module.net.azurerm_resource_group.example_rg (expand)&#45;&gt;[root] module.net.provider[&quot;registry.terraform.io/hashicorp/azurerm&quot;]</title>
<path fill="none" stroke="black" d="M1430.51,-143.876C1448.97,-134.162 1472.2,-121.937 1491.67,-111.69"/>
<polygon fill="black" stroke="black" points="1493.38,-114.742 1500.6,-106.987 1490.12,-108.548 1493.38,-114.742"/>
</g>
<!-- [root] module.net.var.my_loc (expand) -->
<g id="node33" class="node"><title>[root] module.net.var.my_loc (expand)</title>
<ellipse fill="none" stroke="black" cx="2170.98" cy="-90" rx="187.667" ry="18"/>
<text text-anchor="middle" x="2170.98" y="-86.3" font-family="Times,serif" font-size="14.00">[root] module.net.var.my_loc (expand)</text>
</g>
<!-- [root] module.net.azurerm_resource_group.example_rg (expand)&#45;&gt;[root] module.net.var.my_loc (expand) -->
<g id="edge40" class="edge"><title>[root] module.net.azurerm_resource_group.example_rg (expand)&#45;&gt;[root] module.net.var.my_loc (expand)</title>
<path fill="none" stroke="black" d="M1582.64,-144.278C1719.72,-131.864 1903.88,-115.187 2029.42,-103.819"/>
<polygon fill="black" stroke="black" points="2029.84,-107.295 2039.48,-102.908 2029.21,-100.324 2029.84,-107.295"/>
</g>
<!-- [root] module.net.var.my_rg_name (expand) -->
<g id="node34" class="node"><title>[root] module.net.var.my_rg_name (expand)</title>
<ellipse fill="none" stroke="black" cx="864.978" cy="-90" rx="214.462" ry="18"/>
<text text-anchor="middle" x="864.978" y="-86.3" font-family="Times,serif" font-size="14.00">[root] module.net.var.my_rg_name (expand)</text>
</g>
<!-- [root] module.net.azurerm_resource_group.example_rg (expand)&#45;&gt;[root] module.net.var.my_rg_name (expand) -->
<g id="edge41" class="edge"><title>[root] module.net.azurerm_resource_group.example_rg (expand)&#45;&gt;[root] module.net.var.my_rg_name (expand)</title>
<path fill="none" stroke="black" d="M1268.27,-143.966C1182.11,-132.649 1069.76,-117.895 985.538,-106.833"/>
<polygon fill="black" stroke="black" points="985.78,-103.335 975.41,-105.503 984.869,-110.276 985.78,-103.335"/>
</g>
<!-- [root] module.net.azurerm_virtual_network.example_rg (expand) -->
<g id="node9" class="node"><title>[root] module.net.azurerm_virtual_network.example_rg (expand)</title>
<polygon fill="none" stroke="black" points="2254.48,-252 1883.48,-252 1883.48,-216 2254.48,-216 2254.48,-252"/>
<text text-anchor="middle" x="2068.98" y="-230.3" font-family="Times,serif" font-size="14.00">module.net.azurerm_virtual_network.example_rg</text>
</g>
<!-- [root] module.net.azurerm_subnet.internal (expand)&#45;&gt;[root] module.net.azurerm_virtual_network.example_rg (expand) -->
<g id="edge42" class="edge"><title>[root] module.net.azurerm_subnet.internal (expand)&#45;&gt;[root] module.net.azurerm_virtual_network.example_rg (expand)</title>
<path fill="none" stroke="black" d="M2200.41,-287.876C2176.41,-278.222 2146.25,-266.087 2120.87,-255.878"/>
<polygon fill="black" stroke="black" points="2121.99,-252.554 2111.41,-252.068 2119.38,-259.048 2121.99,-252.554"/>
</g>
<!-- [root] module.net.var.my_vpc_subnet_cidr (expand) -->
<g id="node35" class="node"><title>[root] module.net.var.my_vpc_subnet_cidr (expand)</title>
<ellipse fill="none" stroke="black" cx="2522.98" cy="-234" rx="250.756" ry="18"/>
<text text-anchor="middle" x="2522.98" y="-230.3" font-family="Times,serif" font-size="14.00">[root] module.net.var.my_vpc_subnet_cidr (expand)</text>
</g>
<!-- [root] module.net.azurerm_subnet.internal (expand)&#45;&gt;[root] module.net.var.my_vpc_subnet_cidr (expand) -->
<g id="edge43" class="edge"><title>[root] module.net.azurerm_subnet.internal (expand)&#45;&gt;[root] module.net.var.my_vpc_subnet_cidr (expand)</title>
<path fill="none" stroke="black" d="M2311.12,-287.966C2352.41,-277.641 2405.16,-264.454 2447.69,-253.822"/>
<polygon fill="black" stroke="black" points="2448.58,-257.207 2457.43,-251.386 2446.88,-250.416 2448.58,-257.207"/>
</g>
<!-- [root] module.net.azurerm_virtual_network.example_rg (expand)&#45;&gt;[root] module.net.azurerm_resource_group.example_rg (expand) -->
<g id="edge44" class="edge"><title>[root] module.net.azurerm_virtual_network.example_rg (expand)&#45;&gt;[root] module.net.azurerm_resource_group.example_rg (expand)</title>
<path fill="none" stroke="black" d="M1905.69,-215.966C1804.42,-205.401 1674.43,-191.84 1571.33,-181.085"/>
<polygon fill="black" stroke="black" points="1571.43,-177.576 1561.12,-180.02 1570.71,-184.538 1571.43,-177.576"/>
</g>
<!-- [root] module.net.var.my_vpc_cidr (expand) -->
<g id="node36" class="node"><title>[root] module.net.var.my_vpc_cidr (expand)</title>
<ellipse fill="none" stroke="black" cx="2280.98" cy="-162" rx="213.662" ry="18"/>
<text text-anchor="middle" x="2280.98" y="-158.3" font-family="Times,serif" font-size="14.00">[root] module.net.var.my_vpc_cidr (expand)</text>
</g>
<!-- [root] module.net.azurerm_virtual_network.example_rg (expand)&#45;&gt;[root] module.net.var.my_vpc_cidr (expand) -->
<g id="edge45" class="edge"><title>[root] module.net.azurerm_virtual_network.example_rg (expand)&#45;&gt;[root] module.net.var.my_vpc_cidr (expand)</title>
<path fill="none" stroke="black" d="M2120.57,-215.966C2151,-205.917 2189.65,-193.157 2221.38,-182.679"/>
<polygon fill="black" stroke="black" points="2222.59,-185.965 2230.99,-179.506 2220.39,-179.318 2222.59,-185.965"/>
</g>
<!-- [root] module.net (expand) -->
<g id="node38" class="node"><title>[root] module.net (expand)</title>
<ellipse fill="none" stroke="black" cx="2170.98" cy="-18" rx="135.376" ry="18"/>
<text text-anchor="middle" x="2170.98" y="-14.3" font-family="Times,serif" font-size="14.00">[root] module.net (expand)</text>
</g>
<!-- [root] module.net.provider[&quot;registry.terraform.io/hashicorp/azurerm&quot;]&#45;&gt;[root] module.net (expand) -->
<g id="edge51" class="edge"><title>[root] module.net.provider[&quot;registry.terraform.io/hashicorp/azurerm&quot;]&#45;&gt;[root] module.net (expand)</title>
<path fill="none" stroke="black" d="M1643.92,-76.6465C1761.26,-63.8132 1943.68,-43.8611 2060.2,-31.1163"/>
<polygon fill="black" stroke="black" points="2060.66,-34.5873 2070.22,-30.0207 2059.9,-27.6288 2060.66,-34.5873"/>
</g>
<!-- [root] meta.count&#45;boundary (EachMode fixup) -->
<g id="node11" class="node"><title>[root] meta.count&#45;boundary (EachMode fixup)</title>
<ellipse fill="none" stroke="black" cx="2340.98" cy="-738" rx="224.46" ry="18"/>
<text text-anchor="middle" x="2340.98" y="-734.3" font-family="Times,serif" font-size="14.00">[root] meta.count&#45;boundary (EachMode fixup)</text>
</g>
<!-- [root] module.compute (close) -->
<g id="node12" class="node"><title>[root] module.compute (close)</title>
<ellipse fill="none" stroke="black" cx="3014.98" cy="-666" rx="150.574" ry="18"/>
<text text-anchor="middle" x="3014.98" y="-662.3" font-family="Times,serif" font-size="14.00">[root] module.compute (close)</text>
</g>
<!-- [root] meta.count&#45;boundary (EachMode fixup)&#45;&gt;[root] module.compute (close) -->
<g id="edge1" class="edge"><title>[root] meta.count&#45;boundary (EachMode fixup)&#45;&gt;[root] module.compute (close)</title>
<path fill="none" stroke="black" d="M2472.13,-723.379C2594.74,-710.645 2776.28,-691.79 2895.11,-679.45"/>
<polygon fill="black" stroke="black" points="2895.75,-682.902 2905.33,-678.388 2895.02,-675.939 2895.75,-682.902"/>
</g>
<!-- [root] module.net (close) -->
<g id="node13" class="node"><title>[root] module.net (close)</title>
<ellipse fill="none" stroke="black" cx="1819.98" cy="-522" rx="125.378" ry="18"/>
<text text-anchor="middle" x="1819.98" y="-518.3" font-family="Times,serif" font-size="14.00">[root] module.net (close)</text>
</g>
<!-- [root] meta.count&#45;boundary (EachMode fixup)&#45;&gt;[root] module.net (close) -->
<g id="edge2" class="edge"><title>[root] meta.count&#45;boundary (EachMode fixup)&#45;&gt;[root] module.net (close)</title>
<path fill="none" stroke="black" d="M2300.1,-720.208C2205.28,-681.263 1970.73,-584.922 1868.7,-543.011"/>
<polygon fill="black" stroke="black" points="1869.82,-539.691 1859.24,-539.129 1867.16,-546.166 1869.82,-539.691"/>
</g>
<!-- [root] module.compute (close)&#45;&gt;[root] module.compute.azurerm_virtual_machine.example_rg (expand) -->
<g id="edge3" class="edge"><title>[root] module.compute (close)&#45;&gt;[root] module.compute.azurerm_virtual_machine.example_rg (expand)</title>
<path fill="none" stroke="black" d="M3146.52,-657.157C3347.04,-645.201 3731.33,-622.288 3973.14,-607.87"/>
<polygon fill="black" stroke="black" points="3973.69,-611.343 3983.47,-607.254 3973.28,-604.355 3973.69,-611.343"/>
</g>
<!-- [root] module.net (close)&#45;&gt;[root] module.net.azurerm_network_security_rule.testrules (expand) -->
<g id="edge24" class="edge"><title>[root] module.net (close)&#45;&gt;[root] module.net.azurerm_network_security_rule.testrules (expand)</title>
<path fill="none" stroke="black" d="M1805.98,-503.922C1785.19,-478.66 1748.14,-434.071 1743.98,-432 1686.22,-403.247 1243.51,-400.873 1143.26,-395.957"/>
<polygon fill="black" stroke="black" points="1143.43,-392.46 1133.24,-395.375 1143.02,-399.449 1143.43,-392.46"/>
</g>
<!-- [root] module.net.output.my_nic (expand) -->
<g id="node24" class="node"><title>[root] module.net.output.my_nic (expand)</title>
<ellipse fill="none" stroke="black" cx="2537.98" cy="-450" rx="204.964" ry="18"/>
<text text-anchor="middle" x="2537.98" y="-446.3" font-family="Times,serif" font-size="14.00">[root] module.net.output.my_nic (expand)</text>
</g>
<!-- [root] module.net (close)&#45;&gt;[root] module.net.output.my_nic (expand) -->
<g id="edge25" class="edge"><title>[root] module.net (close)&#45;&gt;[root] module.net.output.my_nic (expand)</title>
<path fill="none" stroke="black" d="M1909.25,-509.316C1924.49,-507.448 1940.18,-505.604 1954.98,-504 2099.92,-488.291 2265.47,-473.546 2383.03,-463.617"/>
<polygon fill="black" stroke="black" points="2383.52,-467.089 2393.19,-462.761 2382.93,-460.113 2383.52,-467.089"/>
</g>
<!-- [root] module.net.output.my_rg_name (expand) -->
<g id="node25" class="node"><title>[root] module.net.output.my_rg_name (expand)</title>
<ellipse fill="none" stroke="black" cx="1381.98" cy="-378" rx="231.259" ry="18"/>
<text text-anchor="middle" x="1381.98" y="-374.3" font-family="Times,serif" font-size="14.00">[root] module.net.output.my_rg_name (expand)</text>
</g>
<!-- [root] module.net (close)&#45;&gt;[root] module.net.output.my_rg_name (expand) -->
<g id="edge26" class="edge"><title>[root] module.net (close)&#45;&gt;[root] module.net.output.my_rg_name (expand)</title>
<path fill="none" stroke="black" d="M1816.76,-503.775C1811.94,-483.144 1800.74,-449.218 1776.98,-432 1757.31,-417.745 1640.33,-403.179 1538.73,-392.934"/>
<polygon fill="black" stroke="black" points="1538.94,-389.437 1528.64,-391.925 1538.24,-396.402 1538.94,-389.437"/>
</g>
<!-- [root] module.net.output.pub_ips (expand) -->
<g id="node26" class="node"><title>[root] module.net.output.pub_ips (expand)</title>
<ellipse fill="none" stroke="black" cx="1838.98" cy="-378" rx="207.963" ry="18"/>
<text text-anchor="middle" x="1838.98" y="-374.3" font-family="Times,serif" font-size="14.00">[root] module.net.output.pub_ips (expand)</text>
</g>
<!-- [root] module.net (close)&#45;&gt;[root] module.net.output.pub_ips (expand) -->
<g id="edge27" class="edge"><title>[root] module.net (close)&#45;&gt;[root] module.net.output.pub_ips (expand)</title>
<path fill="none" stroke="black" d="M1822.27,-503.871C1825.51,-479.67 1831.46,-435.211 1835.31,-406.393"/>
<polygon fill="black" stroke="black" points="1838.82,-406.565 1836.68,-396.189 1831.88,-405.637 1838.82,-406.565"/>
</g>
<!-- [root] module.net.var.admin_password (expand) -->
<g id="node27" class="node"><title>[root] module.net.var.admin_password (expand)</title>
<ellipse fill="none" stroke="black" cx="2783.98" cy="-162" rx="233.159" ry="18"/>
<text text-anchor="middle" x="2783.98" y="-158.3" font-family="Times,serif" font-size="14.00">[root] module.net.var.admin_password (expand)</text>
</g>
<!-- [root] module.net (close)&#45;&gt;[root] module.net.var.admin_password (expand) -->
<g id="edge28" class="edge"><title>[root] module.net (close)&#45;&gt;[root] module.net.var.admin_password (expand)</title>
<path fill="none" stroke="black" d="M1904.83,-508.709C2023.8,-490.33 2246.24,-451.777 2429.98,-396 2592.11,-346.782 2687.68,-392.098 2782.98,-252 2795.22,-233.997 2794.29,-208.849 2790.98,-189.876"/>
<polygon fill="black" stroke="black" points="2794.4,-189.146 2788.96,-180.055 2787.55,-190.555 2794.4,-189.146"/>
</g>
<!-- [root] module.net.var.admin_username (expand) -->
<g id="node28" class="node"><title>[root] module.net.var.admin_username (expand)</title>
<ellipse fill="none" stroke="black" cx="3021.98" cy="-306" rx="234.758" ry="18"/>
<text text-anchor="middle" x="3021.98" y="-302.3" font-family="Times,serif" font-size="14.00">[root] module.net.var.admin_username (expand)</text>
</g>
<!-- [root] module.net (close)&#45;&gt;[root] module.net.var.admin_username (expand) -->
<g id="edge29" class="edge"><title>[root] module.net (close)&#45;&gt;[root] module.net.var.admin_username (expand)</title>
<path fill="none" stroke="black" d="M1907.01,-509C1922.95,-507.099 1939.44,-505.327 1954.98,-504 2131.63,-488.913 2582.16,-518.937 2751.98,-468 2848.88,-438.934 2947.02,-367.545 2993.79,-330.366"/>
<polygon fill="black" stroke="black" points="2996.04,-333.046 3001.65,-324.055 2991.66,-327.588 2996.04,-333.046"/>
</g>
<!-- [root] module.net.var.managed_disk_type (expand) -->
<g id="node29" class="node"><title>[root] module.net.var.managed_disk_type (expand)</title>
<ellipse fill="none" stroke="black" cx="246.978" cy="-162" rx="246.956" ry="18"/>
<text text-anchor="middle" x="246.978" y="-158.3" font-family="Times,serif" font-size="14.00">[root] module.net.var.managed_disk_type (expand)</text>
</g>
<!-- [root] module.net (close)&#45;&gt;[root] module.net.var.managed_disk_type (expand) -->
<g id="edge30" class="edge"><title>[root] module.net (close)&#45;&gt;[root] module.net.var.managed_disk_type (expand)</title>
<path fill="none" stroke="black" d="M1695.57,-519.599C1390.51,-515.646 622.025,-502.371 510.978,-468 439.826,-445.977 368.978,-453.483 368.978,-379 368.978,-379 368.978,-379 368.978,-305 368.978,-252.644 320.673,-209.953 284.854,-185.494"/>
<polygon fill="black" stroke="black" points="286.781,-182.572 276.511,-179.967 282.915,-188.408 286.781,-182.572"/>
</g>
<!-- [root] module.net.var.vm_size (expand) -->
<g id="node30" class="node"><title>[root] module.net.var.vm_size (expand)</title>
<ellipse fill="none" stroke="black" cx="402.978" cy="-90" rx="192.266" ry="18"/>
<text text-anchor="middle" x="402.978" y="-86.3" font-family="Times,serif" font-size="14.00">[root] module.net.var.vm_size (expand)</text>
</g>
<!-- [root] module.net (close)&#45;&gt;[root] module.net.var.vm_size (expand) -->
<g id="edge31" class="edge"><title>[root] module.net (close)&#45;&gt;[root] module.net.var.vm_size (expand)</title>
<path fill="none" stroke="black" d="M1694.93,-520.239C1370.15,-516.612 524.978,-495.939 524.978,-379 524.978,-379 524.978,-379 524.978,-233 524.978,-192.254 528.053,-176.117 502.978,-144 492.314,-130.341 477.13,-119.803 461.805,-111.857"/>
<polygon fill="black" stroke="black" points="463.322,-108.703 452.799,-107.474 460.259,-114.997 463.322,-108.703"/>
</g>
<!-- [root] module.compute.var.admin_password (expand)&#45;&gt;[root] module.compute (expand) -->
<g id="edge15" class="edge"><title>[root] module.compute.var.admin_password (expand)&#45;&gt;[root] module.compute (expand)</title>
<path fill="none" stroke="black" d="M3834.53,-509.244C4048.06,-495.493 4397.26,-473.006 4593.42,-460.373"/>
<polygon fill="black" stroke="black" points="4593.76,-463.859 4603.51,-459.723 4593.31,-456.873 4593.76,-463.859"/>
</g>
<!-- [root] module.compute.var.admin_username (expand)&#45;&gt;[root] module.compute (expand) -->
<g id="edge16" class="edge"><title>[root] module.compute.var.admin_username (expand)&#45;&gt;[root] module.compute (expand)</title>
<path fill="none" stroke="black" d="M4307.3,-505.94C4402.04,-493.883 4534,-477.088 4627.02,-465.25"/>
<polygon fill="black" stroke="black" points="4627.55,-468.71 4637.03,-463.976 4626.66,-461.766 4627.55,-468.71"/>
</g>
<!-- [root] module.compute.var.managed_disk_type (expand)&#45;&gt;[root] module.compute (expand) -->
<g id="edge17" class="edge"><title>[root] module.compute.var.managed_disk_type (expand)&#45;&gt;[root] module.compute (expand)</title>
<path fill="none" stroke="black" d="M4738.98,-503.697C4738.98,-495.983 4738.98,-486.712 4738.98,-478.112"/>
<polygon fill="black" stroke="black" points="4742.48,-478.104 4738.98,-468.104 4735.48,-478.104 4742.48,-478.104"/>
</g>
<!-- [root] module.compute.var.my_loc (expand)&#45;&gt;[root] module.compute (expand) -->
<g id="edge18" class="edge"><title>[root] module.compute.var.my_loc (expand)&#45;&gt;[root] module.compute (expand)</title>
<path fill="none" stroke="black" d="M5137.32,-506.326C5051.67,-494.429 4931.49,-477.737 4845.58,-465.805"/>
<polygon fill="black" stroke="black" points="4845.92,-462.32 4835.54,-464.411 4844.96,-469.254 4845.92,-462.32"/>
</g>
<!-- [root] module.compute.var.my_nic_id (expand)&#45;&gt;[root] module.compute (expand) -->
<g id="edge19" class="edge"><title>[root] module.compute.var.my_nic_id (expand)&#45;&gt;[root] module.compute (expand)</title>
<path fill="none" stroke="black" d="M2345.47,-508.78C2372.62,-506.945 2400.61,-505.251 2426.98,-504 3227.98,-465.992 4186.42,-455.03 4569.07,-452.047"/>
<polygon fill="black" stroke="black" points="4569.14,-455.547 4579.11,-451.97 4569.09,-448.547 4569.14,-455.547"/>
</g>
<!-- [root] module.compute.var.my_nic_id (expand)&#45;&gt;[root] module.net.output.my_nic (expand) -->
<g id="edge20" class="edge"><title>[root] module.compute.var.my_nic_id (expand)&#45;&gt;[root] module.net.output.my_nic (expand)</title>
<path fill="none" stroke="black" d="M2270.15,-505.028C2323.93,-494.18 2395.08,-479.827 2450.53,-468.641"/>
<polygon fill="black" stroke="black" points="2451.23,-472.07 2460.34,-466.662 2449.85,-465.209 2451.23,-472.07"/>
</g>
<!-- [root] module.compute.var.my_rg_name (expand)&#45;&gt;[root] module.compute (expand) -->
<g id="edge21" class="edge"><title>[root] module.compute.var.my_rg_name (expand)&#45;&gt;[root] module.compute (expand)</title>
<path fill="none" stroke="black" d="M5547.2,-509.026C5359.35,-495.539 5057.27,-473.852 4880.48,-461.159"/>
<polygon fill="black" stroke="black" points="4880.55,-457.655 4870.33,-460.43 4880.05,-464.637 4880.55,-457.655"/>
</g>
<!-- [root] module.compute.var.my_vm_count (expand)&#45;&gt;[root] module.compute (expand) -->
<g id="edge22" class="edge"><title>[root] module.compute.var.my_vm_count (expand)&#45;&gt;[root] module.compute (expand)</title>
<path fill="none" stroke="black" d="M6046.57,-509.04C6018.64,-507.239 5990.01,-505.489 5962.98,-504 5581.85,-482.997 5133.59,-465.396 4899.6,-456.748"/>
<polygon fill="black" stroke="black" points="4899.43,-453.24 4889.31,-456.368 4899.17,-460.235 4899.43,-453.24"/>
</g>
<!-- [root] module.compute.var.vm_size (expand)&#45;&gt;[root] module.compute (expand) -->
<g id="edge23" class="edge"><title>[root] module.compute.var.vm_size (expand)&#45;&gt;[root] module.compute (expand)</title>
<path fill="none" stroke="black" d="M6548.76,-508.882C6522.84,-507.046 6496.14,-505.326 6470.98,-504 5897.68,-473.776 5216.66,-459.161 4907.09,-453.679"/>
<polygon fill="black" stroke="black" points="4906.75,-450.173 4896.69,-453.496 4906.63,-457.172 4906.75,-450.173"/>
</g>
<!-- [root] module.compute.provider[&quot;registry.terraform.io/hashicorp/azurerm&quot;] (close) -->
<g id="node22" class="node"><title>[root] module.compute.provider[&quot;registry.terraform.io/hashicorp/azurerm&quot;] (close)</title>
<ellipse fill="none" stroke="black" cx="3984.98" cy="-666" rx="394.53" ry="18"/>
<text text-anchor="middle" x="3984.98" y="-662.3" font-family="Times,serif" font-size="14.00">[root] module.compute.provider[&quot;registry.terraform.io/hashicorp/azurerm&quot;] (close)</text>
</g>
<!-- [root] module.compute.provider[&quot;registry.terraform.io/hashicorp/azurerm&quot;] (close)&#45;&gt;[root] module.compute.azurerm_virtual_machine.example_rg (expand) -->
<g id="edge13" class="edge"><title>[root] module.compute.provider[&quot;registry.terraform.io/hashicorp/azurerm&quot;] (close)&#45;&gt;[root] module.compute.azurerm_virtual_machine.example_rg (expand)</title>
<path fill="none" stroke="black" d="M4034.36,-648.055C4063.09,-638.197 4099.49,-625.708 4129.75,-615.323"/>
<polygon fill="black" stroke="black" points="4131.02,-618.588 4139.34,-612.032 4128.75,-611.967 4131.02,-618.588"/>
</g>
<!-- [root] module.net.output.my_nic (expand)&#45;&gt;[root] module.net.azurerm_network_interface.my_nic (expand) -->
<g id="edge46" class="edge"><title>[root] module.net.output.my_nic (expand)&#45;&gt;[root] module.net.azurerm_network_interface.my_nic (expand)</title>
<path fill="none" stroke="black" d="M2470.3,-432.941C2426.96,-422.656 2370.45,-409.248 2324.62,-398.373"/>
<polygon fill="black" stroke="black" points="2325.25,-394.926 2314.72,-396.023 2323.64,-401.737 2325.25,-394.926"/>
</g>
<!-- [root] module.net.output.my_rg_name (expand)&#45;&gt;[root] module.net.azurerm_resource_group.example_rg (expand) -->
<g id="edge47" class="edge"><title>[root] module.net.output.my_rg_name (expand)&#45;&gt;[root] module.net.azurerm_resource_group.example_rg (expand)</title>
<path fill="none" stroke="black" d="M1383.26,-359.849C1386.03,-322.832 1392.58,-235.181 1395.93,-190.386"/>
<polygon fill="black" stroke="black" points="1399.43,-190.466 1396.69,-180.232 1392.45,-189.944 1399.43,-190.466"/>
</g>
<!-- [root] module.net.output.pub_ips (expand)&#45;&gt;[root] module.net.azurerm_public_ip.examplepublicip (expand) -->
<g id="edge48" class="edge"><title>[root] module.net.output.pub_ips (expand)&#45;&gt;[root] module.net.azurerm_public_ip.examplepublicip (expand)</title>
<path fill="none" stroke="black" d="M1812.83,-360.055C1798.74,-350.922 1781.17,-339.532 1765.92,-329.648"/>
<polygon fill="black" stroke="black" points="1767.55,-326.534 1757.26,-324.032 1763.74,-332.408 1767.55,-326.534"/>
</g>
<!-- [root] module.net.var.admin_password (expand)&#45;&gt;[root] module.net (expand) -->
<g id="edge52" class="edge"><title>[root] module.net.var.admin_password (expand)&#45;&gt;[root] module.net (expand)</title>
<path fill="none" stroke="black" d="M2744.96,-144.152C2696.9,-124.061 2612.38,-90.8372 2536.98,-72 2455.33,-51.6002 2361.33,-38.1955 2289.04,-29.971"/>
<polygon fill="black" stroke="black" points="2289.32,-26.4799 2278.99,-28.8446 2288.54,-33.4364 2289.32,-26.4799"/>
</g>
<!-- [root] module.net.var.admin_username (expand)&#45;&gt;[root] module.net (expand) -->
<g id="edge53" class="edge"><title>[root] module.net.var.admin_username (expand)&#45;&gt;[root] module.net (expand)</title>
<path fill="none" stroke="black" d="M3029.09,-287.539C3041.03,-255.083 3060.58,-185.042 3025.98,-144 2979.61,-89.006 2522.78,-46.2504 2296.57,-28.2648"/>
<polygon fill="black" stroke="black" points="2296.55,-24.7525 2286.3,-27.4532 2296,-31.7307 2296.55,-24.7525"/>
</g>
<!-- [root] module.net.var.managed_disk_type (expand)&#45;&gt;[root] module.net (expand) -->
<g id="edge55" class="edge"><title>[root] module.net.var.managed_disk_type (expand)&#45;&gt;[root] module.net (expand)</title>
<path fill="none" stroke="black" d="M227.13,-143.721C207.104,-124.28 181.809,-92.719 201.978,-72 233.751,-39.3604 1577.31,-24.3333 2026.46,-20.2154"/>
<polygon fill="black" stroke="black" points="2026.61,-23.7142 2036.58,-20.123 2026.55,-16.7145 2026.61,-23.7142"/>
</g>
<!-- [root] module.net.var.vm_size (expand)&#45;&gt;[root] module.net (expand) -->
<g id="edge61" class="edge"><title>[root] module.net.var.vm_size (expand)&#45;&gt;[root] module.net (expand)</title>
<path fill="none" stroke="black" d="M536.717,-77.016C560.76,-75.1316 585.602,-73.3603 608.978,-72 1131.24,-41.6076 1752.83,-26.9319 2027.89,-21.5384"/>
<polygon fill="black" stroke="black" points="2028,-25.0371 2037.93,-21.3427 2027.87,-18.0384 2028,-25.0371"/>
</g>
<!-- [root] module.net.var.inbound_ports (expand)&#45;&gt;[root] module.net (expand) -->
<g id="edge54" class="edge"><title>[root] module.net.var.inbound_ports (expand)&#45;&gt;[root] module.net (expand)</title>
<path fill="none" stroke="black" d="M772.282,-288.033C711.531,-247.483 573.354,-143.044 641.978,-72 689.552,-22.7485 1652.89,-18.4551 2025.55,-18.6466"/>
<polygon fill="black" stroke="black" points="2025.59,-22.1465 2035.59,-18.6529 2025.6,-15.1465 2025.59,-22.1465"/>
</g>
<!-- [root] module.net.var.my_vm_count (expand)&#45;&gt;[root] module.net (expand) -->
<g id="edge58" class="edge"><title>[root] module.net.var.my_vm_count (expand)&#45;&gt;[root] module.net (expand)</title>
<path fill="none" stroke="black" d="M1711.6,-216.759C1792.59,-197.196 1934.71,-164.422 2057.98,-144 2126.4,-132.665 2321.85,-159.79 2367.98,-108 2403.23,-68.413 2339.61,-45.4161 2275.49,-32.7535"/>
<polygon fill="black" stroke="black" points="2276.1,-29.3072 2265.63,-30.8843 2274.8,-36.1848 2276.1,-29.3072"/>
</g>
<!-- [root] module.net.var.my_loc (expand)&#45;&gt;[root] module.net (expand) -->
<g id="edge56" class="edge"><title>[root] module.net.var.my_loc (expand)&#45;&gt;[root] module.net (expand)</title>
<path fill="none" stroke="black" d="M2170.98,-71.6966C2170.98,-63.9827 2170.98,-54.7125 2170.98,-46.1124"/>
<polygon fill="black" stroke="black" points="2174.48,-46.1043 2170.98,-36.1043 2167.48,-46.1044 2174.48,-46.1043"/>
</g>
<!-- [root] module.net.var.my_rg_name (expand)&#45;&gt;[root] module.net (expand) -->
<g id="edge57" class="edge"><title>[root] module.net.var.my_rg_name (expand)&#45;&gt;[root] module.net (expand)</title>
<path fill="none" stroke="black" d="M1014.28,-77.0545C1038.89,-75.2472 1064.15,-73.4913 1087.98,-72 1427.7,-50.742 1827.83,-33.0723 2033.54,-24.5276"/>
<polygon fill="black" stroke="black" points="2033.94,-28.014 2043.79,-24.1027 2033.65,-21.02 2033.94,-28.014"/>
</g>
<!-- [root] module.net.var.my_vpc_subnet_cidr (expand)&#45;&gt;[root] module.net (expand) -->
<g id="edge60" class="edge"><title>[root] module.net.var.my_vpc_subnet_cidr (expand)&#45;&gt;[root] module.net (expand)</title>
<path fill="none" stroke="black" d="M2522.56,-215.738C2521.39,-196.877 2517.36,-166.371 2503.98,-144 2478.56,-101.514 2463.41,-93.8314 2418.98,-72 2377.55,-51.6472 2328.47,-39.0757 2284.94,-31.3257"/>
<polygon fill="black" stroke="black" points="2285.32,-27.8405 2274.88,-29.601 2284.14,-34.7399 2285.32,-27.8405"/>
</g>
<!-- [root] module.net.var.my_vpc_cidr (expand)&#45;&gt;[root] module.net (expand) -->
<g id="edge59" class="edge"><title>[root] module.net.var.my_vpc_cidr (expand)&#45;&gt;[root] module.net (expand)</title>
<path fill="none" stroke="black" d="M2352.17,-144.971C2371.23,-137.081 2389.66,-125.365 2400.98,-108 2409.71,-94.5943 2410.94,-84.5197 2400.98,-72 2385.55,-52.6115 2333.37,-39.7135 2282.6,-31.5007"/>
<polygon fill="black" stroke="black" points="2282.9,-28.0048 2272.48,-29.9201 2281.82,-34.921 2282.9,-28.0048"/>
</g>
<!-- [root] module.net.provider[&quot;registry.terraform.io/hashicorp/azurerm&quot;] (close) -->
<g id="node37" class="node"><title>[root] module.net.provider[&quot;registry.terraform.io/hashicorp/azurerm&quot;] (close)</title>
<ellipse fill="none" stroke="black" cx="1365.98" cy="-450" rx="369.335" ry="18"/>
<text text-anchor="middle" x="1365.98" y="-446.3" font-family="Times,serif" font-size="14.00">[root] module.net.provider[&quot;registry.terraform.io/hashicorp/azurerm&quot;] (close)</text>
</g>
<!-- [root] module.net.provider[&quot;registry.terraform.io/hashicorp/azurerm&quot;] (close)&#45;&gt;[root] module.net.azurerm_network_interface.my_nic (expand) -->
<g id="edge49" class="edge"><title>[root] module.net.provider[&quot;registry.terraform.io/hashicorp/azurerm&quot;] (close)&#45;&gt;[root] module.net.azurerm_network_interface.my_nic (expand)</title>
<path fill="none" stroke="black" d="M1561.59,-434.708C1697.13,-424.629 1882.06,-410.529 2054.78,-396.095"/>
<polygon fill="black" stroke="black" points="2055.15,-399.576 2064.82,-395.254 2054.56,-392.6 2055.15,-399.576"/>
</g>
<!-- [root] module.net.provider[&quot;registry.terraform.io/hashicorp/azurerm&quot;] (close)&#45;&gt;[root] module.net.azurerm_network_security_rule.testrules (expand) -->
<g id="edge50" class="edge"><title>[root] module.net.provider[&quot;registry.terraform.io/hashicorp/azurerm&quot;] (close)&#45;&gt;[root] module.net.azurerm_network_security_rule.testrules (expand)</title>
<path fill="none" stroke="black" d="M1265.24,-432.676C1200.62,-422.205 1116.53,-408.58 1049.24,-397.677"/>
<polygon fill="black" stroke="black" points="1049.45,-394.165 1039.02,-396.021 1048.33,-401.075 1049.45,-394.165"/>
</g>
<!-- [root] root -->
<g id="node39" class="node"><title>[root] root</title>
<ellipse fill="none" stroke="black" cx="2340.98" cy="-810" rx="58.4896" ry="18"/>
<text text-anchor="middle" x="2340.98" y="-806.3" font-family="Times,serif" font-size="14.00">[root] root</text>
</g>
<!-- [root] root&#45;&gt;[root] meta.count&#45;boundary (EachMode fixup) -->
<g id="edge62" class="edge"><title>[root] root&#45;&gt;[root] meta.count&#45;boundary (EachMode fixup)</title>
<path fill="none" stroke="black" d="M2340.98,-791.697C2340.98,-783.983 2340.98,-774.712 2340.98,-766.112"/>
<polygon fill="black" stroke="black" points="2344.48,-766.104 2340.98,-756.104 2337.48,-766.104 2344.48,-766.104"/>
</g>
<!-- [root] root&#45;&gt;[root] module.compute.provider[&quot;registry.terraform.io/hashicorp/azurerm&quot;] (close) -->
<g id="edge63" class="edge"><title>[root] root&#45;&gt;[root] module.compute.provider[&quot;registry.terraform.io/hashicorp/azurerm&quot;] (close)</title>
<path fill="none" stroke="black" d="M2396.62,-804.194C2616.38,-785.212 3429.93,-714.942 3799.8,-682.995"/>
<polygon fill="black" stroke="black" points="3800.14,-686.478 3809.8,-682.131 3799.54,-679.504 3800.14,-686.478"/>
</g>
<!-- [root] root&#45;&gt;[root] module.net.provider[&quot;registry.terraform.io/hashicorp/azurerm&quot;] (close) -->
<g id="edge64" class="edge"><title>[root] root&#45;&gt;[root] module.net.provider[&quot;registry.terraform.io/hashicorp/azurerm&quot;] (close)</title>
<path fill="none" stroke="black" d="M2282.42,-809.886C2110.3,-810.932 1617.98,-802.114 1617.98,-667 1617.98,-667 1617.98,-667 1617.98,-593 1617.98,-524.196 1545.79,-488.365 1478.69,-469.922"/>
<polygon fill="black" stroke="black" points="1479.4,-466.489 1468.84,-467.325 1477.62,-473.258 1479.4,-466.489"/>
</g>
</g>
</svg>
