<?xml version="1.0" encoding="UTF-8" standalone="no"?>
<!DOCTYPE svg PUBLIC "-//W3C//DTD SVG 1.1//EN"
 "http://www.w3.org/Graphics/SVG/1.1/DTD/svg11.dtd">
<!-- Generated by graphviz version 2.38.0 (20140413.2041)
 -->
<!-- Title: %3 Pages: 1 -->
<svg width="1469pt" height="260pt"
 viewBox="0.00 0.00 1468.64 260.00" xmlns="http://www.w3.org/2000/svg" xmlns:xlink="http://www.w3.org/1999/xlink">
<g id="graph0" class="graph" transform="scale(1 1) rotate(0) translate(4 256)">
<title>%3</title>
<polygon fill="white" stroke="none" points="-4,4 -4,-256 1464.64,-256 1464.64,4 -4,4"/>
<!-- [root] azurerm_resource_group.rg (expand) -->
<g id="node1" class="node"><title>[root] azurerm_resource_group.rg (expand)</title>
<polygon fill="none" stroke="black" points="977.214,-108 760.214,-108 760.214,-72 977.214,-72 977.214,-108"/>
<text text-anchor="middle" x="868.714" y="-86.3" font-family="Times,serif" font-size="14.00">azurerm_resource_group.rg</text>
</g>
<!-- [root] provider[&quot;registry.terraform.io/hashicorp/azurerm&quot;] -->
<g id="node2" class="node"><title>[root] provider[&quot;registry.terraform.io/hashicorp/azurerm&quot;]</title>
<polygon fill="none" stroke="black" points="355.714,-36 -0.213988,-18 355.714,-3.55271e-15 711.642,-18 355.714,-36"/>
<text text-anchor="middle" x="355.714" y="-14.3" font-family="Times,serif" font-size="14.00">provider[&quot;registry.terraform.io/hashicorp/azurerm&quot;]</text>
</g>
<!-- [root] azurerm_resource_group.rg (expand)&#45;&gt;[root] provider[&quot;registry.terraform.io/hashicorp/azurerm&quot;] -->
<g id="edge1" class="edge"><title>[root] azurerm_resource_group.rg (expand)&#45;&gt;[root] provider[&quot;registry.terraform.io/hashicorp/azurerm&quot;]</title>
<path fill="none" stroke="black" d="M759.92,-74.1548C670.287,-61.9242 544.15,-44.7126 456.722,-32.7828"/>
<polygon fill="black" stroke="black" points="457.172,-29.3119 446.791,-31.4276 456.226,-36.2476 457.172,-29.3119"/>
</g>
<!-- [root] var.location -->
<g id="node3" class="node"><title>[root] var.location</title>
<polygon fill="none" stroke="black" points="823.714,-36 729.714,-36 729.714,-0 829.714,-0 829.714,-30 823.714,-36"/>
<polyline fill="none" stroke="black" points="823.714,-36 823.714,-30 "/>
<polyline fill="none" stroke="black" points="829.714,-30 823.714,-30 "/>
<text text-anchor="middle" x="779.714" y="-14.3" font-family="Times,serif" font-size="14.00">var.location</text>
</g>
<!-- [root] azurerm_resource_group.rg (expand)&#45;&gt;[root] var.location -->
<g id="edge2" class="edge"><title>[root] azurerm_resource_group.rg (expand)&#45;&gt;[root] var.location</title>
<path fill="none" stroke="black" d="M846.714,-71.6966C835.505,-62.8807 821.712,-52.0321 809.56,-42.4742"/>
<polygon fill="black" stroke="black" points="811.485,-39.5354 801.461,-36.1043 807.157,-45.0375 811.485,-39.5354"/>
</g>
<!-- [root] var.multi&#45;region&#45;deployment -->
<g id="node4" class="node"><title>[root] var.multi&#45;region&#45;deployment</title>
<polygon fill="none" stroke="black" points="1061.21,-36 848.214,-36 848.214,-0 1067.21,-0 1067.21,-30 1061.21,-36"/>
<polyline fill="none" stroke="black" points="1061.21,-36 1061.21,-30 "/>
<polyline fill="none" stroke="black" points="1067.21,-30 1061.21,-30 "/>
<text text-anchor="middle" x="957.714" y="-14.3" font-family="Times,serif" font-size="14.00">var.multi&#45;region&#45;deployment</text>
</g>
<!-- [root] azurerm_resource_group.rg (expand)&#45;&gt;[root] var.multi&#45;region&#45;deployment -->
<g id="edge3" class="edge"><title>[root] azurerm_resource_group.rg (expand)&#45;&gt;[root] var.multi&#45;region&#45;deployment</title>
<path fill="none" stroke="black" d="M890.714,-71.6966C901.923,-62.8807 915.716,-52.0321 927.868,-42.4742"/>
<polygon fill="black" stroke="black" points="930.271,-45.0375 935.967,-36.1043 925.943,-39.5354 930.271,-45.0375"/>
</g>
<!-- [root] var.system -->
<g id="node5" class="node"><title>[root] var.system</title>
<polygon fill="none" stroke="black" points="1173.71,-36 1085.71,-36 1085.71,-0 1179.71,-0 1179.71,-30 1173.71,-36"/>
<polyline fill="none" stroke="black" points="1173.71,-36 1173.71,-30 "/>
<polyline fill="none" stroke="black" points="1179.71,-30 1173.71,-30 "/>
<text text-anchor="middle" x="1132.71" y="-14.3" font-family="Times,serif" font-size="14.00">var.system</text>
</g>
<!-- [root] azurerm_resource_group.rg (expand)&#45;&gt;[root] var.system -->
<g id="edge4" class="edge"><title>[root] azurerm_resource_group.rg (expand)&#45;&gt;[root] var.system</title>
<path fill="none" stroke="black" d="M938.731,-71.9972C976.727,-62.5738 1024.72,-50.3564 1075.79,-36.1999"/>
<polygon fill="black" stroke="black" points="1077.01,-39.4942 1085.71,-33.4389 1075.13,-32.7509 1077.01,-39.4942"/>
</g>
<!-- [root] meta.count&#45;boundary (EachMode fixup) -->
<g id="node6" class="node"><title>[root] meta.count&#45;boundary (EachMode fixup)</title>
<ellipse fill="none" stroke="black" cx="590.714" cy="-162" rx="224.46" ry="18"/>
<text text-anchor="middle" x="590.714" y="-158.3" font-family="Times,serif" font-size="14.00">[root] meta.count&#45;boundary (EachMode fixup)</text>
</g>
<!-- [root] meta.count&#45;boundary (EachMode fixup)&#45;&gt;[root] azurerm_resource_group.rg (expand) -->
<g id="edge5" class="edge"><title>[root] meta.count&#45;boundary (EachMode fixup)&#45;&gt;[root] azurerm_resource_group.rg (expand)</title>
<path fill="none" stroke="black" d="M655.542,-144.676C696.028,-134.482 748.388,-121.298 791.083,-110.547"/>
<polygon fill="black" stroke="black" points="792.031,-113.918 800.874,-108.082 790.322,-107.13 792.031,-113.918"/>
</g>
<!-- [root] provider[&quot;registry.terraform.io/hashicorp/azurerm&quot;] (close) -->
<g id="node7" class="node"><title>[root] provider[&quot;registry.terraform.io/hashicorp/azurerm&quot;] (close)</title>
<ellipse fill="none" stroke="black" cx="1146.71" cy="-162" rx="313.844" ry="18"/>
<text text-anchor="middle" x="1146.71" y="-158.3" font-family="Times,serif" font-size="14.00">[root] provider[&quot;registry.terraform.io/hashicorp/azurerm&quot;] (close)</text>
</g>
<!-- [root] provider[&quot;registry.terraform.io/hashicorp/azurerm&quot;] (close)&#45;&gt;[root] azurerm_resource_group.rg (expand) -->
<g id="edge6" class="edge"><title>[root] provider[&quot;registry.terraform.io/hashicorp/azurerm&quot;] (close)&#45;&gt;[root] azurerm_resource_group.rg (expand)</title>
<path fill="none" stroke="black" d="M1080.48,-144.322C1040.19,-134.177 988.535,-121.171 946.33,-110.544"/>
<polygon fill="black" stroke="black" points="946.924,-107.084 936.372,-108.036 945.215,-113.872 946.924,-107.084"/>
</g>
<!-- [root] root -->
<g id="node8" class="node"><title>[root] root</title>
<ellipse fill="none" stroke="black" cx="868.714" cy="-234" rx="58.4896" ry="18"/>
<text text-anchor="middle" x="868.714" y="-230.3" font-family="Times,serif" font-size="14.00">[root] root</text>
</g>
<!-- [root] root&#45;&gt;[root] meta.count&#45;boundary (EachMode fixup) -->
<g id="edge7" class="edge"><title>[root] root&#45;&gt;[root] meta.count&#45;boundary (EachMode fixup)</title>
<path fill="none" stroke="black" d="M824.971,-221.985C782.252,-211.229 716.405,-194.649 665.389,-181.803"/>
<polygon fill="black" stroke="black" points="665.947,-178.334 655.395,-179.287 664.238,-185.123 665.947,-178.334"/>
</g>
<!-- [root] root&#45;&gt;[root] provider[&quot;registry.terraform.io/hashicorp/azurerm&quot;] (close) -->
<g id="edge8" class="edge"><title>[root] root&#45;&gt;[root] provider[&quot;registry.terraform.io/hashicorp/azurerm&quot;] (close)</title>
<path fill="none" stroke="black" d="M912.457,-221.985C954.817,-211.319 1019.92,-194.927 1070.75,-182.127"/>
<polygon fill="black" stroke="black" points="1071.87,-185.454 1080.72,-179.618 1070.16,-178.666 1071.87,-185.454"/>
</g>
</g>
</svg>
